<?xml version="1.0" encoding="utf-8"?>
<!-- Generator: Adobe Illustrator 23.0.3, SVG Export Plug-In . SVG Version: 6.00 Build 0)  -->
<svg version="1.1" id="Ebene_1" xmlns="http://www.w3.org/2000/svg" xmlns:xlink="http://www.w3.org/1999/xlink" x="0px" y="0px"
	 viewBox="0 0 400 400" style="enable-background:new 0 0 400 400;" xml:space="preserve">
<style type="text/css">
	.st0{fill:#38A4DD;}
	.st1{fill:#FFFFFF;}
	.st2{fill:#12304A;}
</style>
<g>
	<circle class="st0" cx="199.05" cy="200" r="143.94"/>
	<path class="st1" d="M283.96,214.2V83.52c-50.32-35.94-117.92-35.94-168.25,0v186.24h109.06"/>
	<path class="st2" d="M224.78,269.76c0,0,5.68-9.47-6.63-61.71l65.81,6.16"/>
	<rect x="142.23" y="116.82" class="st0" width="115.22" height="6.94"/>
	<rect x="142.23" y="144.92" class="st0" width="115.22" height="6.94"/>
	<rect x="142.23" y="173.17" class="st0" width="115.22" height="6.94"/>
	<path class="st0" d="M200,346.47c-80.89,0-146.47-65.58-146.47-146.47S119.11,53.53,200,53.53c80.89,0,146.47,65.58,146.47,146.47
		C346.38,280.85,280.85,346.38,200,346.47z M200,58.74c-78.01,0-141.26,63.24-141.26,141.26c0,78.01,63.24,141.26,141.26,141.26
		c78.02,0,141.26-63.24,141.26-141.26C340.83,122.16,277.83,59.17,200,58.74z"/>
</g>
</svg>
